<svg width="131" height="158" viewBox="0 0 131 158" fill="none" xmlns="http://www.w3.org/2000/svg">
<g filter="url(#filter0_d_59_784)">
<path d="M65.5 144L46.0144 110.25L84.9856 110.25L65.5 144Z" fill="{accent}"/>
<circle cx="65.5" cy="59.5" r="57.5" fill="{accent}"/>
<path d="M45.4573 45.2226L52.8736 39.5964C50.1583 35.9955 44.4686 37.0404 42 37.5C47.5 38.5 45.4573 45.2226 45.4573 45.2226Z" fill="{background}"/>
<path d="M45.4573 45.2226L55.061 45.386C54.7269 42.877 53.9272 40.9937 52.8736 39.5964L45.4573 45.2226Z" fill="{background}"/>
<path d="M62.1748 45.5071L57.8354 35.8323M62.1748 45.5071L76.0112 29.252M62.1748 45.5071L55.061 45.386M53.9583 27.2957H50.8994M53.9583 27.2957H58.2266M53.9583 27.2957L57.8354 35.8323M45.4573 45.2226C45.4573 45.2226 47.5 38.5 42 37.5M45.4573 45.2226L55.061 45.386M45.4573 45.2226L52.8736 39.5964M57.8354 35.8323L52.8736 39.5964M83.9431 45.2226L80.3862 40.7409L76.0112 29.252M76.0112 29.252L74.2683 24.0589L78.501 21L71.3872 21.3913M76.0112 29.252H80M42 37.5C44.4686 37.0404 50.1583 35.9955 52.8736 39.5964M42 37.5H37.5M55.061 45.386C54.7269 42.877 53.9272 40.9937 52.8736 39.5964" stroke="{background}" stroke-width="4" stroke-linecap="round" stroke-linejoin="round"/>
<circle cx="45.9197" cy="45.0804" r="8.91971" stroke="{background}" stroke-width="4"/>
<circle cx="83.9075" cy="45.0804" r="8.91971" stroke="{background}" stroke-width="4"/>
</g>
<defs>
<filter id="filter0_d_59_784" x="0" y="0" width="131" height="158" filterUnits="userSpaceOnUse" color-interpolation-filters="sRGB">
<feFlood flood-opacity="0" result="BackgroundImageFix"/>
<feColorMatrix in="SourceAlpha" type="matrix" values="0 0 0 0 0 0 0 0 0 0 0 0 0 0 0 0 0 0 127 0" result="hardAlpha"/>
<feOffset dy="6"/>
<feGaussianBlur stdDeviation="4"/>
<feComposite in2="hardAlpha" operator="out"/>
<feColorMatrix type="matrix" values="0 0 0 0 0 0 0 0 0 0 0 0 0 0 0 0 0 0 {shadow_strength} 0"/>
<feBlend mode="normal" in2="BackgroundImageFix" result="effect1_dropShadow_59_784"/>
<feBlend mode="normal" in="SourceGraphic" in2="effect1_dropShadow_59_784" result="shape"/>
</filter>
</defs>
</svg>