<svg width="82" height="82" viewBox="0 0 82 82" fill="none" xmlns="http://www.w3.org/2000/svg">
<path d="M33 32.9957C33 31.4056 33.7371 29.8805 35.049 28.7561C36.361 27.6317 38.1404 27 39.9958 27H41.9946C43.85 27 45.6294 27.6317 46.9414 28.7561C48.2533 29.8805 48.9904 31.4056 48.9904 32.9957C49.064 34.2933 48.7139 35.5797 47.9929 36.6611C47.2719 37.7424 46.219 38.5603 44.9928 38.9914C43.7666 39.5663 42.7137 40.6568 41.9927 42.0986C41.2717 43.5405 40.9216 45.2556 40.9952 46.9857M40.9952 54.98V55" stroke="#808080" stroke-width="7" stroke-linecap="round" stroke-linejoin="round"/>
<path d="M11.4105 41.0526C11.4105 48.9142 14.5335 56.4538 20.0925 62.0128C25.6515 67.5717 33.1911 70.6947 41.0526 70.6947M11.4105 41.0526C11.4105 33.1911 14.5335 25.6515 20.0925 20.0925C25.6515 14.5335 33.1911 11.4105 41.0526 11.4105M11.4105 41.0526H4M41.0526 70.6947C48.9142 70.6947 56.4538 67.5717 62.0128 62.0128C67.5717 56.4538 70.6947 48.9142 70.6947 41.0526M41.0526 70.6947V78.1053M70.6947 41.0526C70.6947 33.1911 67.5717 25.6515 62.0128 20.0925C56.4538 14.5335 48.9142 11.4105 41.0526 11.4105M70.6947 41.0526H78.1053M41.0526 11.4105V4" stroke="#808080" stroke-width="7" stroke-linecap="round" stroke-linejoin="round"/>
</svg>
