<svg width="1024" height="1024" viewBox="0 0 1024 1024" fill="none" xmlns="http://www.w3.org/2000/svg">
<path d="M648.059 507.311H451.669V556.164H547.049C535.535 598.213 497.256 629.457 451.669 629.457C396.992 629.457 352.806 585.432 352.806 530.765C352.806 476.09 391.862 432.065 451.954 432.065V380.966C364.127 380.966 301.697 448.16 301.697 531.049C301.697 613.946 368.834 681.14 451.746 681.14C525.675 681.14 586.959 626.719 599.38 556.164H648.059V507.311Z" fill="#79C000"/>
<path d="M661.136 403.955L661.136 459.702H703.665V403.955H759.412V361.426H703.665V306.254L661.136 306.254L661.136 361.426H605.389V403.955H661.136Z" fill="#79C000"/>
<path fill-rule="evenodd" clip-rule="evenodd" d="M905.392 383.552C905.392 345.543 895.914 309.819 879.213 278.543L921.797 255.803C942.144 293.904 953.668 337.418 953.668 383.552C953.668 529.626 838.331 648.762 693.757 654.859C648.782 743.3 556.896 803.954 450.795 803.954C300.345 803.954 178.381 681.99 178.381 531.541C178.381 472.963 196.897 418.638 228.394 374.193L267.782 402.106C241.877 438.66 226.657 483.287 226.657 531.541C226.657 655.328 327.007 755.678 450.795 755.678C542.569 755.678 621.514 700.518 656.181 621.442C656.183 621.439 656.184 621.435 656.186 621.431L662.689 606.575L678.746 606.831C679.397 606.841 679.779 606.839 680.361 606.834C680.783 606.832 681.309 606.828 682.116 606.828C805.428 606.828 905.392 506.864 905.392 383.552Z" fill="#79C000"/>
<path d="M682.113 160.276C603.589 160.276 534.494 200.813 494.677 262.169C512.297 265.054 529.497 269.572 545.667 275.392C577.608 235.774 627.007 209.126 682.113 209.126C778.446 209.126 856.539 287.219 856.539 383.551C856.539 479.884 778.446 555.843 682.113 555.843V507.567C751.784 507.567 808.263 453.222 808.263 383.551C808.263 313.881 751.784 257.402 682.113 257.402C637.527 257.402 597.21 282.001 574.645 317.71L563.506 335.338L544.447 326.878C516.532 314.487 483.352 306.827 451.079 306.827C423.963 306.827 398.021 311.626 374.022 320.399L357.447 275.058C383.643 265.481 411.699 259.813 440.888 258.739C451.826 237.639 465.454 218.154 481.319 200.739C471.27 199.824 461.088 199.356 450.792 199.356C267.332 199.356 118.608 348.08 118.608 531.54H70.332C70.332 321.418 240.67 151.08 450.792 151.08C477.626 151.08 503.835 153.862 529.137 159.161C572.693 129.408 625.363 112 682.113 112V160.276Z" fill="#79C000"/>
<path fill-rule="evenodd" clip-rule="evenodd" d="M450.794 863.725C541.96 863.725 624.508 827.032 684.556 767.553L718.529 801.851C649.81 869.92 555.193 912.001 450.794 912.001C396.848 912.001 345.464 900.758 298.908 880.466L318.197 836.212C358.783 853.902 403.61 863.725 450.794 863.725Z" fill="#79C000"/>
<path d="M749.066 699.357C733.196 699.357 720.33 712.222 720.33 728.09C720.33 743.964 733.196 756.829 749.066 756.829C764.935 756.829 777.801 743.964 777.801 728.09C777.801 712.222 764.935 699.357 749.066 699.357Z" fill="#79C000"/>
<path d="M299.07 305.678C283.2 305.678 270.334 318.542 270.334 334.411C270.334 350.284 283.2 363.149 299.07 363.149C314.939 363.149 327.805 350.284 327.805 334.411C327.805 318.542 314.939 305.678 299.07 305.678Z" fill="#79C000"/>
</svg>
