<svg width="1024" height="1024" viewBox="0 0 1024 1024" fill="none" xmlns="http://www.w3.org/2000/svg">
<path d="M718.531 801.851C649.811 869.919 555.194 912 450.796 912C396.85 912 345.466 900.758 298.91 880.466L318.199 836.211C358.785 853.901 403.611 863.724 450.796 863.724C541.961 863.724 624.509 827.031 684.557 767.552L718.531 801.851Z" fill="#79C000"/>
<path d="M921.799 255.802C942.145 293.903 953.669 337.417 953.669 383.551C953.669 529.625 838.332 648.759 693.758 654.857C648.783 743.298 556.897 803.954 450.796 803.954C300.346 803.954 178.382 681.99 178.382 531.54C178.382 472.962 196.898 418.637 228.395 374.192L267.783 402.105C241.878 438.659 226.658 483.286 226.658 531.54C226.658 655.328 327.008 755.678 450.796 755.678C542.57 755.678 621.515 700.517 656.182 621.441L662.69 606.575C669.166 606.677 675.641 606.827 682.118 606.827C805.429 606.827 905.393 506.863 905.393 383.551C905.393 345.542 895.916 309.817 879.214 278.542L921.799 255.802Z" fill="#79C000"/>
<path d="M749.072 699.356C764.941 699.356 777.807 712.221 777.807 728.089C777.807 743.963 764.941 756.828 749.072 756.828C733.202 756.828 720.336 743.963 720.336 728.089C720.336 712.221 733.202 699.356 749.072 699.356Z" fill="#79C000"/>
<path d="M610.107 507.212C613.661 533.506 611.218 562.722 601.955 587.576C592.657 612.52 577.348 634.785 557.385 652.396C537.422 670.007 513.422 682.42 487.513 688.534C463.069 694.303 437.727 694.163 413.525 688.534L424.357 641.444C441.388 645.32 459.393 645.3 476.365 641.295C494.501 637.015 511.301 628.326 525.275 615.998C543.474 599.944 554.761 579.326 560.409 556.062H450.355V507.212H610.107Z" fill="#79C000"/>
<path d="M355.813 601.464C371.683 601.464 384.549 614.329 384.549 630.197C384.549 646.071 371.683 658.936 355.813 658.936C339.943 658.936 327.078 646.071 327.078 630.197C327.078 614.329 339.943 601.464 355.813 601.464Z" fill="#79C000"/>
<path d="M432.555 370.233C467.935 366.374 503.599 374.31 534.003 392.808L508.842 433.936C487.558 420.987 462.573 415.694 437.807 418.395C413.042 421.097 389.861 431.903 371.87 449.136C353.878 466.368 342.083 489.061 338.318 513.688C335.831 529.948 336.952 546.623 341.558 562.384L294.907 575.89C288.441 553.439 286.862 529.674 290.426 506.365C295.806 471.184 312.656 438.765 338.358 414.147C364.06 389.53 397.175 374.092 432.555 370.233Z" fill="#79C000"/>
<path d="M682.118 160.276C603.593 160.276 534.497 200.814 494.68 262.171C512.3 265.056 529.499 269.574 545.669 275.393C577.61 235.774 627.01 209.126 682.116 209.126C778.449 209.127 856.542 287.219 856.542 383.552C856.542 480.307 778.022 555.965 682.116 555.966V507.69C752.213 507.69 808.266 452.799 808.266 383.552C808.266 313.881 751.787 257.402 682.116 257.402C637.529 257.402 597.213 282.002 574.648 317.711L563.509 335.338C502.374 308.201 438.162 296.953 374.024 320.399L357.45 275.058C383.646 265.481 411.702 259.814 440.891 258.74C451.829 237.64 465.458 218.155 481.322 200.739C471.274 199.825 461.092 199.356 450.796 199.356C267.336 199.356 118.612 348.08 118.612 531.54H70.3359C70.3359 321.418 240.674 151.08 450.796 151.08C477.63 151.08 503.839 153.862 529.141 159.161C572.697 129.408 625.368 112 682.118 112V160.276Z" fill="#79C000"/>
<path d="M703.669 361.425H759.416V403.954H703.669V459.701H661.141V403.954H605.393V361.425H661.141V306.253H703.669V361.425Z" fill="#79C000"/>
<path d="M300.221 305.103C316.091 305.103 328.957 317.968 328.957 333.836C328.957 349.71 316.091 362.575 300.221 362.575C284.351 362.575 271.485 349.71 271.485 333.836C271.485 317.968 284.351 305.103 300.221 305.103Z" fill="#79C000"/>
</svg>
