<svg width="1243" height="1126" viewBox="0 0 1243 1126" fill="none" xmlns="http://www.w3.org/2000/svg">
  <path d="M812.782 556.319H536.695V624.999H670.781C654.595 684.111 600.781 728.035 536.695 728.035C459.829 728.035 397.711 666.144 397.711 589.291C397.711 512.428 452.617 450.538 537.095 450.538V378.701C413.627 378.701 325.861 473.164 325.861 589.691C325.861 706.23 420.244 800.693 536.803 800.693C640.733 800.693 726.888 724.186 744.35 624.999H812.782V556.319Z" fill="#79C000"/>
  <path d="M831.159 411.018L831.159 489.388H890.947V411.018H969.317V351.23H890.947V273.668L831.159 273.668L831.159 351.23H752.789V411.018H831.159Z" fill="#79C000"/>
  <path fill-rule="evenodd" clip-rule="evenodd" d="M1174.54 382.337C1174.54 328.902 1161.21 278.681 1137.73 234.713L1197.6 202.744C1226.2 256.308 1242.4 317.481 1242.4 382.337C1242.4 587.69 1080.26 755.173 877.015 763.745C813.788 888.077 684.613 973.346 535.455 973.346C323.949 973.346 152.49 801.887 152.49 590.382C152.49 508.032 178.521 431.662 222.8 369.18L278.172 408.421C241.755 459.809 220.357 522.546 220.357 590.382C220.357 764.405 361.431 905.479 535.455 905.479C664.473 905.479 775.455 827.933 824.191 716.767C824.193 716.762 824.195 716.757 824.198 716.752L833.34 695.867L855.913 696.227C856.827 696.241 857.365 696.237 858.184 696.232C858.776 696.227 859.515 696.222 860.651 696.222C1034.01 696.222 1174.54 555.691 1174.54 382.337Z" fill="#79C000"/>
  <path d="M860.649 68.4511C750.259 68.4511 653.123 125.439 597.148 211.695C621.918 215.75 646.098 222.102 668.83 230.284C713.734 174.587 783.18 137.126 860.65 137.126C996.075 137.126 1105.86 246.911 1105.86 382.336C1105.86 517.762 996.075 627.547 860.65 627.547V559.68C958.594 559.68 1037.99 480.28 1037.99 382.336C1037.99 284.393 958.594 204.993 860.65 204.993C797.968 204.993 741.291 239.575 709.569 289.775L693.909 314.557L667.115 302.664C627.872 285.244 581.227 274.476 535.857 274.476C497.737 274.476 461.267 281.222 427.529 293.556L404.227 229.814C441.055 216.351 480.496 208.382 521.53 206.872C536.907 177.21 556.066 149.818 578.369 125.335C564.242 124.049 549.927 123.391 535.453 123.391C277.541 123.391 68.4628 332.47 68.4628 590.381H0.595703C0.595703 294.988 240.06 55.524 535.453 55.524C573.177 55.524 610.022 59.4348 645.593 66.8833C706.824 25.056 780.869 0.583984 860.649 0.583984V68.4511Z" fill="#79C000"/>
  <path fill-rule="evenodd" clip-rule="evenodd" d="M535.454 1057.37C663.616 1057.37 779.664 1005.79 864.08 922.172L911.841 970.389C815.234 1066.08 682.219 1125.24 535.454 1125.24C459.615 1125.24 387.379 1109.44 321.93 1080.91L349.047 1018.69C406.103 1043.56 469.121 1057.37 535.454 1057.37Z" fill="#79C000"/>
  <path d="M954.774 826.301C932.464 826.301 914.377 844.386 914.377 866.694C914.377 889.01 932.464 907.095 954.774 907.095C977.084 907.095 995.171 889.01 995.171 866.694C995.171 844.386 977.084 826.301 954.774 826.301Z" fill="#79C000"/>
  <path d="M322.157 272.861C299.847 272.861 281.76 290.947 281.76 313.254C281.76 335.57 299.847 353.655 322.157 353.655C344.467 353.655 362.554 335.57 362.554 313.254C362.554 290.947 344.467 272.861 322.157 272.861Z" fill="#79C000"/>
</svg>
