<svg width="1024" height="1024" viewBox="0 0 1024 1024" fill="none" xmlns="http://www.w3.org/2000/svg">
<mask id="mask0_282_512" style="mask-type:alpha" maskUnits="userSpaceOnUse" x="110" y="265" width="803" height="493">
<path d="M251.28 612.642L350.447 537.412C314.139 489.262 238.059 503.233 205.051 509.379C278.594 522.751 251.28 612.642 251.28 612.642Z" fill="#79C000"/>
<path d="M251.279 612.642L379.695 614.827C375.227 581.278 364.534 556.096 350.446 537.412L251.279 612.642Z" fill="#79C000"/>
<path d="M474.817 616.446L416.793 487.08M474.817 616.446L659.83 399.092M474.817 616.446L379.696 614.827M416.793 487.08L364.951 372.933M416.793 487.08L350.446 537.412M659.83 399.092L718.33 552.715L765.892 612.642M659.83 399.092L636.526 329.653L693.123 288.75L598.001 293.982M659.83 399.092H713.167M379.696 614.827L251.28 612.642M379.696 614.827C375.228 581.278 364.535 556.096 350.446 537.412M364.951 372.933H324.049M364.951 372.933H422.024M251.28 612.642C251.28 612.642 278.594 522.751 205.051 509.38M251.28 612.642L350.446 537.412M205.051 509.38C238.059 503.234 314.139 489.262 350.446 537.412M205.051 509.38H144.879" stroke="#79C000" stroke-width="46.8" stroke-linecap="round" stroke-linejoin="round"/>
<path d="M765.751 734.25C833.848 734.25 889.051 679.047 889.051 610.95C889.051 542.853 833.848 487.65 765.751 487.65C697.654 487.65 642.451 542.853 642.451 610.95C642.451 679.047 697.654 734.25 765.751 734.25Z" stroke="#79C000" stroke-width="46.8"/>
<path d="M257.251 734.25C325.348 734.25 380.551 679.047 380.551 610.95C380.551 542.853 325.348 487.65 257.251 487.65C189.154 487.65 133.951 542.853 133.951 610.95C133.951 679.047 189.154 734.25 257.251 734.25Z" stroke="#79C000" stroke-width="46.8"/>
</mask>
<g mask="url(#mask0_282_512)">
<path d="M251.28 612.642L350.447 537.412C314.139 489.262 238.059 503.233 205.051 509.379C278.594 522.751 251.28 612.642 251.28 612.642Z" fill="#79C000"/>
<path d="M251.279 612.642L379.695 614.827C375.227 581.278 364.534 556.096 350.446 537.412L251.279 612.642Z" fill="#79C000"/>
<path d="M474.817 616.446L416.793 487.08M474.817 616.446L659.83 399.092M474.817 616.446L379.696 614.827M416.793 487.08L364.951 372.933M416.793 487.08L350.446 537.412M659.83 399.092L718.33 552.715L765.892 612.642M659.83 399.092L636.526 329.653L693.123 288.75L598.001 293.982M659.83 399.092H713.167M379.696 614.827L251.28 612.642M379.696 614.827C375.228 581.278 364.535 556.096 350.446 537.412M364.951 372.933H324.049M364.951 372.933H422.024M251.28 612.642C251.28 612.642 278.594 522.751 205.051 509.38M251.28 612.642L350.446 537.412M205.051 509.38C238.059 503.234 314.139 489.262 350.446 537.412M205.051 509.38H144.879" stroke="#79C000" stroke-width="46.8" stroke-linecap="round" stroke-linejoin="round"/>
<path d="M765.751 734.25C833.848 734.25 889.051 679.047 889.051 610.95C889.051 542.853 833.848 487.65 765.751 487.65C697.654 487.65 642.451 542.853 642.451 610.95C642.451 679.047 697.654 734.25 765.751 734.25Z" stroke="#79C000" stroke-width="46.8"/>
<path d="M257.251 734.25C325.348 734.25 380.551 679.047 380.551 610.95C380.551 542.853 325.348 487.65 257.251 487.65C189.154 487.65 133.951 542.853 133.951 610.95C133.951 679.047 189.154 734.25 257.251 734.25Z" stroke="#79C000" stroke-width="46.8"/>
<g style="mix-blend-mode:lighten">
<rect x="51.1504" y="51.1499" width="921.6" height="921.6" rx="230.4" fill="url(#paint0_linear_282_512)"/>
</g>
</g>
<defs>
<linearGradient id="paint0_linear_282_512" x1="511.95" y1="-411.45" x2="511.95" y2="709.05" gradientUnits="userSpaceOnUse">
<stop stop-color="white" stop-opacity="0.69"/>
<stop offset="1" stop-color="white" stop-opacity="0"/>
</linearGradient>
</defs>
</svg>
